{
  "title": "Bahar DVD 44 (ep. 111-112).avi",
  "uid": 15795030,
  "size": 1473619968,
  "categoryP": "video",
  "categoryS": "tv_shows",
  "magnet": "?xt=urn:btih:bc108073aaa58ed631332cc5c68828bb330d4e04&amp;dn=Bahar+DVD+44+%28ep.+111-112%29.avi&amp;tr=udp%3A%2F%2Ftracker.leechers-paradise.org%3A6969&amp;tr=udp%3A%2F%2Fzer0day.ch%3A1337&amp;tr=udp%3A%2F%2Fopen.demonii.com%3A1337&amp;tr=udp%3A%2F%2Ftracker.coppersurfer.tk%3A6969&amp;tr=udp%3A%2F%2Fexodus.desync.com%3A6969",
  "seeders": 48,
  "leechers": 3,
  "uploader": "dirac1902",
  "files": 1,
  "time": 1473446385,
  "description": "Bahar aka O Hayat Benim\r\nGreek Subtitles\r\n\r\nGeneral\r\nComplete name                  : Bahar DVD 44 (ep. 111-112).avi\r\nFormat                         : AVI\r\nFormat/Info                    : Audio Video Interleave\r\nFile size                      : 1.37 GiB\r\nDuration                       : 1h 32mn\r\nOverall bit rate mode          : Variable\r\nOverall bit rate               : 2 125 Kbps\r\nWriting application            : VirtualDubMod 1.5.4.1 (build 2178/release)\r\nWriting library                : VirtualDubMod build 2178/release\r\n\r\nVideo\r\nID                             : 0\r\nFormat                         : MPEG-4 Visual\r\nFormat profile                 : Advanced   \r\nFormat settings, BVOP          : 1\r\nFormat settings, QPel          : No\r\nFormat settings, GMC           : No warppoints\r\nFormat settings, Matrix        : Custom\r\nCodec ID                       : XVID\r\nCodec ID/Hint                  : XviD\r\nDuration                       : 1h 32mn\r\nBit rate                       : 2 009 Kbps\r\nWidth                          : 720 pixels\r\nHeight                         : 416 pixels\r\nDisplay aspect ratio           : 1.731\r\nFrame rate                     : 25.000 fps\r\nColor space                    : YUV\r\nChroma subsampling             : 4:2:0\r\nBit depth                      : 8 bits\r\nScan type                      : Progressive\r\nCompression mode               : Lossy\r\nBits/(Pixel*Frame)             : 0.268\r\nStream size                    : 1.30 GiB (95%)\r\nWriting library                : XviD 1.2.1 (UTC 2008-12-04)\r\n\r\nAudio\r\nID                             : 1\r\nFormat                         : MPEG Audio\r\nFormat version                 : Version 1\r\nFormat profile                 : Layer 3\r\nMode                           : Joint stereo\r\nMode extension                 : MS Stereo\r\nCodec ID                       : 55\r\nCodec ID/Hint                  : MP3\r\nDuration                       : 1h 32mn\r\nBit rate mode                  : Variable\r\nBit rate                       : 103 Kbps\r\nNominal bit rate               : 128 Kbps\r\nChannel(s)                     : 2 channels\r\nSampling rate                  : 48.0 KHz\r\nCompression mode               : Lossy\r\nStream size                    : 67.8 MiB (5%)\r\nAlignment                      : Aligned on interleaves\r\nInterleave, duration           : 24 ms (0.60 video frame)\r\nInterleave, preload duration   : 460 ms\r\nWriting library                : LAME3.98r\r\nEncoding settings              : -m j -V 4 -q 2 -lowpass 17 --abr 128\r\nLanguage                       : Turkish",
  "parsed": {
    "xt": "urn:btih:bc108073aaa58ed631332cc5c68828bb330d4e04",
    "dn": "Bahar DVD 44 (ep. 111-112).avi",
    "tr": [
      "udp://exodus.desync.com:6969",
      "udp://open.demonii.com:1337",
      "udp://tracker.coppersurfer.tk:6969",
      "udp://tracker.leechers-paradise.org:6969",
      "udp://zer0day.ch:1337"
    ],
    "infoHash": "bc108073aaa58ed631332cc5c68828bb330d4e04",
    "infoHashBuffer": {
      "type": "Buffer",
      "data": [
        188,
        16,
        128,
        115,
        170,
        165,
        142,
        214,
        49,
        51,
        44,
        197,
        198,
        136,
        40,
        187,
        51,
        13,
        78,
        4
      ]
    },
    "name": "Bahar DVD 44 (ep. 111-112).avi",
    "announce": [
      "udp://exodus.desync.com:6969",
      "udp://open.demonii.com:1337",
      "udp://tracker.coppersurfer.tk:6969",
      "udp://tracker.leechers-paradise.org:6969",
      "udp://zer0day.ch:1337"
    ],
    "urlList": []
  },
  "previous": 51,
  "peers": 29,
  "last_updated": "2016-12-25T12:25:25.286Z"
}